<?xml version="1.0" encoding="UTF-8" standalone="no"?>
<!-- Created with Inkscape (http://www.inkscape.org/) -->

<svg
   xmlns:dc="http://purl.org/dc/elements/1.1/"
   xmlns:cc="http://creativecommons.org/ns#"
   xmlns:rdf="http://www.w3.org/1999/02/22-rdf-syntax-ns#"
   xmlns:svg="http://www.w3.org/2000/svg"
   xmlns="http://www.w3.org/2000/svg"
   xmlns:sodipodi="http://sodipodi.sourceforge.net/DTD/sodipodi-0.dtd"
   xmlns:inkscape="http://www.inkscape.org/namespaces/inkscape"
   width="297mm"
   height="210mm"
   viewBox="0 0 297 210"
   version="1.1"
   id="svg8"
   inkscape:version="0.92.3 (2405546, 2018-03-11)"
   sodipodi:docname="LogoBlog1.svg">
  <defs
     id="defs2" />
  <sodipodi:namedview
     id="base"
     pagecolor="#ffffff"
     bordercolor="#666666"
     borderopacity="1.0"
     inkscape:pageopacity="0.0"
     inkscape:pageshadow="2"
     inkscape:zoom="0.49497475"
     inkscape:cx="-274.06389"
     inkscape:cy="446.95386"
     inkscape:document-units="mm"
     inkscape:current-layer="layer1"
     showgrid="false"
     inkscape:window-width="1920"
     inkscape:window-height="1015"
     inkscape:window-x="0"
     inkscape:window-y="0"
     inkscape:window-maximized="1" />
  <metadata
     id="metadata5">
    <rdf:RDF>
      <cc:Work
         rdf:about="">
        <dc:format>image/svg+xml</dc:format>
        <dc:type
           rdf:resource="http://purl.org/dc/dcmitype/StillImage" />
        <dc:title />
      </cc:Work>
    </rdf:RDF>
  </metadata>
  <g
     inkscape:label="Ebene 1"
     inkscape:groupmode="layer"
     id="layer1"
     transform="translate(0,-87)">
    <g
       id="g8"
       transform="translate(-1.6036212,3.7417734)">
      <path
         style="fill:#fefefe;stroke-width:0.35053766"
         d="M 8.6815891,187.83422 V 100.0976 H 150.47274 292.2639 v 87.73662 87.73663 H 150.47274 8.6815891 Z"
         id="path24"
         inkscape:connector-curvature="0" />
      <path
         style="fill:#cfcfcf;stroke-width:0.35053766"
         d="m 8.9995065,270.5779 c 0,-2.74613 0.086837,-5.26807 0.1929723,-5.60432 0.1748288,-0.55389 4.9648542,-0.61248 50.9462622,-0.62317 l 50.753289,-0.0118 22.57213,-40.36564 c 12.41468,-22.2011 22.57214,-40.55589 22.57214,-40.78843 0,-0.23253 -9.01296,-16.4988 -20.0288,-36.14725 l -20.02879,-35.72447 -53.251165,-0.0999 -53.2511624,-0.0999 -0.088208,-5.50769 -0.088208,-5.5077 69.2352394,0.009 c 65.117074,0.008 69.275884,0.0483 69.918594,0.67639 0.37585,0.36728 7.22243,12.36439 15.21461,26.66025 7.99219,14.29585 14.62625,25.99245 14.74236,25.99245 0.11611,0 6.78897,-11.81614 14.82858,-26.25811 l 14.61748,-26.2581 1.52576,-0.41074 c 1.03186,-0.27777 14.27061,-0.41073 40.89785,-0.41073 32.1092,0 39.40149,0.0931 39.53145,0.50489 0.22985,0.72818 -4.01361,10.01825 -4.73274,10.36124 -0.33232,0.1585 -10.40403,0.30353 -22.38157,0.32228 l -21.77734,0.0341 -20.02879,35.71756 c -11.01584,19.64467 -20.0288,35.90747 -20.0288,36.13958 0,0.23211 10.15746,18.58822 22.57213,40.79136 l 22.57214,40.36935 20.09055,0.0121 20.09054,0.0121 0.78463,0.86964 c 0.98967,1.09688 4.4828,7.90418 4.77009,9.29579 l 0.21536,1.0432 H 252.8482 c -25.86132,0 -39.1099,-0.13093 -39.1099,-0.3865 0,-0.21258 -0.17882,-0.39352 -0.39739,-0.40209 -0.21857,-0.009 -1.61031,-2.3131 -3.09275,-5.12119 -3.18836,-6.03949 -30.70284,-55.0517 -31.44574,-56.01507 -0.47634,-0.61771 -1.54801,1.19476 -15.42581,26.08908 -17.35116,31.1249 -19.59969,35.03904 -20.13649,35.05267 -0.21856,0.006 -0.39739,0.18402 -0.39739,0.3966 0,0.25644 -22.51915,0.3865 -66.921613,0.3865 H 8.9995065 Z m 0.1929723,-12.23813 c -0.2936634,-0.93038 -0.2207396,-140.97086 0.073702,-141.53489 0.2043628,-0.39148 4.1011532,-0.47057 19.0438372,-0.38651 10.332794,0.0581 18.885625,0.2258 19.006291,0.3726 0.120665,0.14681 5.971525,16.7271 13.001905,36.8451 7.030384,20.118 12.902554,36.60794 13.049263,36.64431 0.146713,0.0364 6.041839,-16.37 13.100285,-36.45859 7.058443,-20.0886 13.07249,-36.74213 13.364548,-37.00785 0.57379,-0.52205 11.21297,-0.66655 12.22881,-0.16609 0.29328,0.14449 6.33769,10.4371 13.43201,22.87246 l 12.89875,22.60975 -0.006,20.67881 -0.006,20.67881 -14.06219,26.18254 c -9.72805,18.11275 -14.23367,26.18352 -14.61855,26.18571 -0.52693,0.003 -0.55636,-2.5668 -0.55636,-48.58051 0,-26.72102 -0.12119,-48.41844 -0.2693,-48.21649 -0.14812,0.20195 -5.749,16.02063 -12.446387,35.15263 -6.697394,19.13199 -12.391431,35.33716 -12.653417,36.01147 -0.261986,0.67431 -0.77705,1.32417 -1.144585,1.44412 -0.367535,0.11994 -4.638237,0.22046 -9.490451,0.22336 -8.02289,0.005 -8.872617,-0.0567 -9.378563,-0.679 -0.305995,-0.37635 -6.207337,-16.81447 -13.114092,-36.52914 l -12.557728,-35.84486 -0.158958,49.68444 c -0.139499,43.60184 -0.21734,49.7293 -0.635835,50.0509 -0.281179,0.21607 -6.10551,0.36888 -14.192789,0.37237 -12.216723,0.005 -13.7370064,-0.0609 -13.9088862,-0.60545 z M 248.29237,252.28393 c -0.7715,-1.32861 -6.23049,-11.02506 -12.1311,-21.54765 -5.9006,-10.5226 -10.98957,-19.47985 -11.30881,-19.90501 -1.45185,-1.93351 -13.33879,-23.93425 -13.33237,-24.676 0.004,-0.46762 2.93393,-5.66455 6.67627,-11.84215 3.66798,-6.05485 6.66905,-11.23464 6.66905,-11.51065 0,-0.27601 0.1952,-0.5929 0.43378,-0.7042 0.23858,-0.1113 5.99388,-10.19362 12.78957,-22.40516 l 12.35579,-22.20279 h 16.01902 16.01901 l -0.13975,0.88883 c -0.0769,0.48886 -8.55663,15.9249 -18.84391,34.30231 -10.28728,18.37742 -18.76364,33.68832 -18.83634,34.02422 -0.076,0.35133 7.70932,14.6567 18.32996,33.68071 10.15419,18.18849 18.46217,33.34971 18.46217,33.69159 0,0.56284 -1.50123,0.6216 -15.87981,0.6216 h -15.87981 z"
         id="path22"
         inkscape:connector-curvature="0" />
      <path
         style="fill:#fda1a1;stroke-width:0.35053766"
         d="m 9.0700143,270.25641 0.088451,-5.31445 50.9512557,-0.19325 50.951259,-0.19325 22.62474,-40.38977 c 12.44361,-22.21437 22.62569,-40.65066 22.62684,-40.96952 0.001,-0.31887 -9.04979,-16.71101 -20.11321,-36.42697 l -20.11531,-35.84721 -53.303829,-0.0977 -53.3038283,-0.0978 -0.088451,-5.31445 -0.088451,-5.31444 H 78.620995 147.94251 l 1.01064,1.74314 c 0.55585,0.95872 7.31262,12.99239 15.01504,26.74149 7.70243,13.74909 14.1696,25.06159 14.3715,25.13888 0.2019,0.0773 6.99738,-11.7711 15.10108,-26.32976 8.10369,-14.55866 14.94857,-26.61208 15.21086,-26.78539 0.26228,-0.17331 18.61009,-0.36183 40.7729,-0.41894 30.92663,-0.0797 40.29603,0.003 40.29603,0.35484 0,0.63901 -4.11648,9.734 -4.56325,10.08208 -0.20046,0.15618 -10.25552,0.28663 -22.34458,0.28988 l -21.98012,0.006 -20.12542,35.84833 c -11.06898,19.71659 -20.12366,36.10923 -20.12151,36.4281 0.002,0.31886 10.20977,18.79863 22.6836,41.06615 l 22.6797,40.48639 H 266.051 c 18.69506,0 20.14572,0.0473 20.72621,0.67638 0.70624,0.76529 4.4238,7.81392 4.8646,9.22344 l 0.28843,0.92232 h -38.88159 -38.88159 l -0.65938,-0.86964 c -0.36266,-0.4783 -2.01671,-3.39158 -3.67568,-6.47395 -4.66708,-8.67151 -31.06324,-55.44917 -31.36178,-55.57743 -0.14589,-0.0627 -7.11302,12.17473 -15.48251,27.19423 -15.36148,27.56699 -19.25111,34.37238 -20.13653,35.23137 -0.37794,0.36665 -15.24246,0.47356 -67.177473,0.48313 l -66.6921435,0.0123 z M 9.146391,258.0815 C 9.063298,257.81578 9.0320227,225.94361 9.076889,187.25447 l 0.081576,-70.3439 18.795599,-0.0997 c 16.10239,-0.0854 18.850427,-0.0194 19.178222,0.46083 0.210442,0.30827 6.130238,17.01481 13.1551,37.12564 7.024862,20.11083 12.915537,36.58073 13.090392,36.59977 0.174854,0.019 6.142275,-16.54132 13.260931,-36.80081 7.11866,-20.25948 13.127299,-36.97756 13.352531,-37.15129 0.22523,-0.17374 2.99824,-0.31854 6.16223,-0.3218 5.09976,-0.005 5.81042,0.0716 6.26107,0.67699 0.27959,0.37559 6.16543,10.59382 13.07963,22.70716 l 12.57128,22.02427 -0.003,20.67801 -0.003,20.67802 -13.90124,25.86223 c -7.64568,14.22423 -14.04426,25.83388 -14.21907,25.79922 -0.20939,-0.0415 -0.34538,-16.68008 -0.39854,-48.76265 -0.0444,-26.7848 -0.19422,-48.69964 -0.33295,-48.69964 -0.13872,0 -5.95702,16.26654 -12.929541,36.14787 -6.972519,19.88133 -12.875215,36.49138 -13.117103,36.91122 -0.4207,0.73022 -0.835734,0.7631 -9.561886,0.75744 -5.017156,-0.003 -9.308059,-0.14933 -9.535344,-0.3246 -0.227283,-0.17527 -6.141735,-16.65222 -13.143223,-36.61542 -7.001489,-19.96322 -12.859933,-36.46198 -13.018765,-36.66393 -0.173172,-0.22018 -0.288787,19.67111 -0.288787,49.68521 0,38.4143 -0.08871,50.16023 -0.3815,50.5162 -0.564123,0.68582 -27.8695517,0.66703 -28.0841802,-0.0193 z m 240.305849,-4.24795 c -0.35477,-0.48028 -5.91079,-10.26531 -12.34671,-21.74451 -6.43592,-11.47919 -12.1573,-21.56697 -12.71418,-22.41728 -1.71518,-2.61892 -12.87879,-22.9909 -12.87317,-23.49166 0.003,-0.25941 2.59228,-4.73287 5.75414,-9.94102 3.16186,-5.20816 6.27109,-10.42597 6.9094,-11.59515 0.63831,-1.16918 1.32154,-2.29971 1.51828,-2.51228 0.19675,-0.21258 5.89344,-10.34546 12.65932,-22.51751 l 12.30161,-22.131 15.79429,0.10022 c 14.43648,0.0916 15.79096,0.15492 15.75562,0.73656 -0.0213,0.34999 -8.57808,15.89359 -19.01514,34.54133 -10.43705,18.64774 -18.91244,34.1018 -18.83418,34.34235 0.0783,0.24056 8.4024,15.22119 18.4981,33.29029 10.09569,18.06911 18.37388,33.11382 18.39597,33.43268 0.0351,0.50688 -1.92064,0.59236 -15.55907,0.67999 l -15.59923,0.10022 z"
         id="path20"
         inkscape:connector-curvature="0" />
      <path
         style="fill:#9f9f9f;stroke-width:0.35053766"
         d="m 9.0700143,270.25641 0.088451,-5.31445 50.9512557,-0.19325 50.951259,-0.19325 22.62474,-40.38977 c 12.44361,-22.21437 22.62569,-40.65066 22.62684,-40.96952 0.001,-0.31887 -9.04979,-16.71101 -20.11321,-36.42697 l -20.11531,-35.84721 -53.303829,-0.0977 -53.3038283,-0.0978 -0.088451,-5.31445 -0.088451,-5.31444 H 78.620995 147.94251 l 1.01064,1.74314 c 0.55585,0.95872 7.31262,12.99239 15.01504,26.74149 7.70243,13.74909 14.1696,25.06159 14.3715,25.13888 0.2019,0.0773 6.99738,-11.7711 15.10108,-26.32976 8.10369,-14.55866 14.94857,-26.61208 15.21086,-26.78539 0.26228,-0.17331 18.61009,-0.36183 40.7729,-0.41894 30.92663,-0.0797 40.29603,0.003 40.29603,0.35484 0,0.63901 -4.11648,9.734 -4.56325,10.08208 -0.20046,0.15618 -10.25552,0.28663 -22.34458,0.28988 l -21.98012,0.006 -20.12542,35.84833 c -11.06898,19.71659 -20.12366,36.10923 -20.12151,36.4281 0.002,0.31886 10.20977,18.79863 22.6836,41.06615 l 22.6797,40.48639 H 266.051 c 18.69506,0 20.14572,0.0473 20.72621,0.67638 0.70624,0.76529 4.4238,7.81392 4.8646,9.22344 l 0.28843,0.92232 h -38.88159 -38.88159 l -0.65938,-0.86964 c -0.36266,-0.4783 -2.01671,-3.39158 -3.67568,-6.47395 -4.66708,-8.67151 -31.06324,-55.44917 -31.36178,-55.57743 -0.14589,-0.0627 -7.11302,12.17473 -15.48251,27.19423 -15.36148,27.56699 -19.25111,34.37238 -20.13653,35.23137 -0.37794,0.36665 -15.24246,0.47356 -67.177473,0.48313 l -66.6921435,0.0123 z M 9.146391,258.0815 C 9.063298,257.81578 9.0320227,225.94361 9.076889,187.25447 l 0.081576,-70.3439 18.795599,-0.0997 c 16.10239,-0.0854 18.850427,-0.0194 19.178222,0.46083 0.210442,0.30827 6.130238,17.01481 13.1551,37.12564 7.024862,20.11083 12.915537,36.58073 13.090392,36.59977 0.174854,0.019 6.142275,-16.54132 13.260931,-36.80081 7.11866,-20.25948 13.127299,-36.97756 13.352531,-37.15129 0.22523,-0.17374 2.99824,-0.31854 6.16223,-0.3218 5.09976,-0.005 5.81042,0.0716 6.26107,0.67699 0.27959,0.37559 6.16543,10.59382 13.07963,22.70716 l 12.57128,22.02427 -0.003,20.67801 -0.003,20.67802 -13.90124,25.86223 c -7.64568,14.22423 -14.04426,25.83388 -14.21907,25.79922 -0.20939,-0.0415 -0.34538,-16.68008 -0.39854,-48.76265 -0.0444,-26.7848 -0.19422,-48.69964 -0.33295,-48.69964 -0.13872,0 -5.95702,16.26654 -12.929541,36.14787 -6.972519,19.88133 -12.875215,36.49138 -13.117103,36.91122 -0.4207,0.73022 -0.835734,0.7631 -9.561886,0.75744 -5.017156,-0.003 -9.308059,-0.14933 -9.535344,-0.3246 -0.227283,-0.17527 -6.141735,-16.65222 -13.143223,-36.61542 -7.001489,-19.96322 -12.859933,-36.46198 -13.018765,-36.66393 -0.173172,-0.22018 -0.288787,19.67111 -0.288787,49.68521 0,38.4143 -0.08871,50.16023 -0.3815,50.5162 -0.564123,0.68582 -27.8695517,0.66703 -28.0841802,-0.0193 z m 240.102419,-5.02456 c -0.42044,-0.69088 -5.88537,-10.38732 -12.14428,-21.54765 -6.25892,-11.16034 -11.83613,-20.98722 -12.39382,-21.83753 -1.71883,-2.62075 -12.88041,-22.99111 -12.87183,-23.49166 0.004,-0.25941 3.33066,-5.96997 7.39158,-12.69013 4.06092,-6.72017 12.81568,-21.98228 19.45501,-33.91581 l 12.07151,-21.69733 h 15.48906 c 8.51898,0 15.56578,0.15092 15.65955,0.33538 0.0938,0.18446 -8.41924,15.68325 -18.91782,34.44175 -10.49857,18.75851 -19.0251,34.30452 -18.94785,34.54669 0.0773,0.24218 8.44291,15.30932 18.59033,33.48253 10.14742,18.17322 18.38264,33.17444 18.30048,33.33605 -0.0822,0.16162 -7.07221,0.29385 -15.53343,0.29385 h -15.38406 z"
         id="path18"
         inkscape:connector-curvature="0" />
      <path
         style="fill:#fd5c5c;stroke-width:0.35053766"
         d="m 8.9995065,270.35421 v -5.21664 l 51.0667995,-0.0978 51.066804,-0.0978 22.39921,-40.00326 c 12.31957,-22.00179 22.58973,-40.44499 22.82259,-40.98488 0.40835,-0.94679 -0.29553,-2.2634 -19.8367,-37.10448 l -20.26007,-36.12285 -53.390877,-0.19326 -53.3908804,-0.19325 -0.088707,-5.12119 -0.088707,-5.12119 69.2357374,0.009 69.235744,0.009 15.10107,27.04485 c 9.61001,17.21077 15.2689,27.00953 15.56261,26.94773 0.25384,-0.0534 7.15999,-12.09732 15.34701,-26.76425 12.38735,-22.19178 15.03095,-26.70812 15.75226,-26.91129 1.25269,-0.35286 80.26063,-0.39268 80.13417,-0.0404 -0.5894,1.64196 -4.18204,9.37577 -4.50831,9.70497 -0.30183,0.30454 -6.86046,0.4591 -22.46464,0.52941 l -22.03835,0.0993 -20.13525,35.88166 c -11.07438,19.73491 -20.13525,36.1897 -20.13525,36.56619 0,0.37649 10.21046,18.92822 22.68991,41.22608 l 22.68992,40.54154 20.44731,0.19326 20.44731,0.19325 2.3391,4.44481 c 1.2865,2.44464 2.48083,4.74918 2.65406,5.12119 0.29923,0.64258 -1.63225,0.67638 -38.64559,0.67638 h -38.96057 l -2.85612,-5.31444 c -6.95433,-12.94005 -32.54942,-58.08585 -32.86,-57.95998 -0.18911,0.0766 -7.17954,12.38805 -15.53428,27.3587 -8.35474,14.97065 -16.34234,29.17604 -17.75022,31.56754 l -2.55977,4.34818 H 75.743169 8.9995065 Z m 0,-82.70922 V 117.10382 H 27.876664 c 14.726323,0 18.944549,0.10623 19.183639,0.48313 0.168566,0.26572 6.084522,17.0497 13.14657,37.29773 7.062049,20.24803 12.993154,36.81459 13.180235,36.81459 0.187082,0 6.116378,-16.4409 13.176211,-36.53533 7.059832,-20.09444 13.033716,-36.87842 13.275295,-37.29773 0.410126,-0.71186 0.826786,-0.76239 6.286506,-0.76239 h 5.84726 l 0.7756,1.25614 c 0.42658,0.69088 6.2279,10.81699 12.89183,22.50246 l 12.11624,21.24633 -0.002,20.68946 -0.002,20.68947 -13.74778,25.60484 c -7.56128,14.08267 -13.85508,25.60535 -13.98622,25.60596 -0.13114,7.7e-4 -0.24062,-21.87025 -0.2433,-48.6019 -0.003,-29.19143 -0.12263,-48.82936 -0.29972,-49.16977 -0.22645,-0.43528 -0.45274,-0.12141 -0.97532,1.35276 -0.37426,1.05575 -6.1982,17.65996 -12.942106,36.89825 -6.743899,19.23828 -12.402244,35.19866 -12.5741,35.4675 -0.242037,0.37863 -2.42344,0.46575 -9.678302,0.3865 l -9.365684,-0.10229 -13.052836,-37.2011 c -7.179061,-20.46061 -13.173636,-37.20111 -13.32128,-37.20111 -0.147644,0 -0.304739,22.82795 -0.3491,50.72878 l -0.08066,50.72877 -14.067844,0.10065 -14.0678445,0.10065 z M 249.24881,253.05694 c -0.42044,-0.69088 -5.88537,-10.38732 -12.14428,-21.54765 -6.25892,-11.16034 -11.83613,-20.98722 -12.39382,-21.83753 -1.71883,-2.62075 -12.88041,-22.99111 -12.87183,-23.49166 0.004,-0.25941 3.33066,-5.96997 7.39158,-12.69013 4.06092,-6.72017 12.81568,-21.98228 19.45501,-33.91581 l 12.07151,-21.69733 h 15.48906 c 8.51898,0 15.56578,0.15092 15.65955,0.33538 0.0938,0.18446 -8.41924,15.68325 -18.91782,34.44175 -10.49857,18.75851 -19.0251,34.30452 -18.94785,34.54669 0.0773,0.24218 8.44291,15.30932 18.59033,33.48253 10.14742,18.17322 18.38264,33.17444 18.30048,33.33605 -0.0822,0.16162 -7.07221,0.29385 -15.53343,0.29385 h -15.38406 z"
         id="path16"
         inkscape:connector-curvature="0" />
      <path
         style="fill:#5c5c5c;stroke-width:0.35053766"
         d="m 8.9995065,270.35421 v -5.21664 l 51.0667995,-0.0978 51.066804,-0.0978 22.39921,-40.00326 c 12.31957,-22.00179 22.58973,-40.44499 22.82259,-40.98488 0.40835,-0.94679 -0.29553,-2.2634 -19.8367,-37.10448 l -20.26007,-36.12285 -53.390877,-0.19326 -53.3908804,-0.19325 -0.088707,-5.12119 -0.088707,-5.12119 69.2357374,0.009 69.235744,0.009 15.10107,27.04485 c 9.61001,17.21077 15.2689,27.00953 15.56261,26.94773 0.25384,-0.0534 7.15999,-12.09732 15.34701,-26.76425 12.38735,-22.19178 15.03095,-26.70812 15.75226,-26.91129 1.25269,-0.35286 80.26063,-0.39268 80.13417,-0.0404 -0.5894,1.64196 -4.18204,9.37577 -4.50831,9.70497 -0.30183,0.30454 -6.86046,0.4591 -22.46464,0.52941 l -22.03835,0.0993 -20.13525,35.88166 c -11.07438,19.73491 -20.13525,36.1897 -20.13525,36.56619 0,0.37649 10.21046,18.92822 22.68991,41.22608 l 22.68992,40.54154 20.44731,0.19326 20.44731,0.19325 2.3391,4.44481 c 1.2865,2.44464 2.48083,4.74918 2.65406,5.12119 0.29923,0.64258 -1.63225,0.67638 -38.64559,0.67638 h -38.96057 l -2.85612,-5.31444 c -6.95433,-12.94005 -32.54942,-58.08585 -32.86,-57.95998 -0.18911,0.0766 -7.17954,12.38805 -15.53428,27.3587 -8.35474,14.97065 -16.34234,29.17604 -17.75022,31.56754 l -2.55977,4.34818 H 75.743169 8.9995065 Z m 0,-82.70922 V 117.10382 H 27.876664 c 14.726323,0 18.944549,0.10623 19.183639,0.48313 0.168566,0.26572 6.084522,17.0497 13.14657,37.29773 7.062049,20.24803 12.993154,36.81459 13.180235,36.81459 0.187082,0 6.116378,-16.4409 13.176211,-36.53533 7.059832,-20.09444 13.033716,-36.87842 13.275295,-37.29773 0.410126,-0.71186 0.826786,-0.76239 6.286506,-0.76239 h 5.84726 l 0.7756,1.25614 c 0.42658,0.69088 6.2279,10.81699 12.89183,22.50246 l 12.11624,21.24633 -0.002,20.68946 -0.002,20.68947 -13.74778,25.60484 c -7.56128,14.08267 -13.85508,25.60535 -13.98622,25.60596 -0.13114,7.7e-4 -0.24062,-21.87025 -0.2433,-48.6019 -0.003,-29.19143 -0.12263,-48.82936 -0.29972,-49.16977 -0.22645,-0.43528 -0.45274,-0.12141 -0.97532,1.35276 -0.37426,1.05575 -6.1982,17.65996 -12.942106,36.89825 -6.743899,19.23828 -12.402244,35.19866 -12.5741,35.4675 -0.242037,0.37863 -2.42344,0.46575 -9.678302,0.3865 l -9.365684,-0.10229 -13.052836,-37.2011 c -7.179061,-20.46061 -13.173636,-37.20111 -13.32128,-37.20111 -0.147644,0 -0.304739,22.82795 -0.3491,50.72878 l -0.08066,50.72877 -14.067844,0.10065 -14.0678445,0.10065 z M 249.7666,253.05694 c -0.35367,-0.4783 -5.41139,-9.39207 -11.23936,-19.80838 -5.82799,-10.41631 -11.40111,-20.2432 -12.38471,-21.83753 -0.98361,-1.59434 -4.55149,-7.8984 -7.92861,-14.00904 l -6.14024,-11.11025 0.56668,-1.06465 c 0.31168,-0.58557 3.66838,-6.19552 7.45934,-12.46656 3.79096,-6.27104 12.28887,-21.09834 18.88426,-32.94955 l 11.99159,-21.54765 h 15.27359 c 13.61974,0 15.25326,0.0644 15.08579,0.595 -0.10329,0.32724 -8.58147,15.58936 -18.8404,33.91581 -10.25894,18.32645 -18.71102,33.58968 -18.78241,33.91829 -0.0714,0.32861 0.35278,1.45914 0.94259,2.51228 13.24658,23.65249 35.84625,64.3078 35.84625,64.48504 0,0.13026 -6.77055,0.23682 -15.04566,0.23682 h -15.04566 z"
         id="path14"
         inkscape:connector-curvature="0" />
      <path
         style="fill:#fd0101;stroke-width:0.35053766"
         d="m 9.0246052,270.25731 c 0.013804,-2.92344 0.085327,-5.14142 0.1589402,-4.92884 0.1364854,0.39414 101.9909446,0.20167 102.2680346,-0.19325 0.52903,-0.75402 45.40289,-81.17687 45.54396,-81.62383 0.16805,-0.53239 -39.82545,-72.40104 -40.66139,-73.06886 -0.19549,-0.15618 -24.215657,-0.28663 -53.378143,-0.28988 -42.130752,-0.005 -53.0504278,-0.10517 -53.1576655,-0.48905 -0.074229,-0.26572 -0.1770359,-2.52701 -0.2284602,-5.02507 l -0.093499,-4.54194 69.2265117,5e-4 c 60.100286,4.4e-4 69.226506,0.074 69.226506,0.55812 0,0.5635 28.82506,52.3573 29.88404,53.69662 0.31455,0.3978 0.70352,0.62439 0.86438,0.50353 0.50576,-0.38002 29.98451,-53.38523 29.91604,-53.7915 -0.0358,-0.21258 0.35593,-0.49637 0.87059,-0.63065 0.51464,-0.13428 18.80498,-0.26473 40.64519,-0.28988 37.7967,-0.0435 39.68563,-0.0132 39.21456,0.63065 -0.2722,0.37201 -1.3516,2.58959 -2.39866,4.92794 l -1.90374,4.25156 -22.26284,0.19325 c -12.24457,0.10629 -22.32711,0.28021 -22.40566,0.3865 -0.0785,0.10629 -9.25265,16.44077 -20.3869,36.29883 -12.10686,21.59274 -20.17352,36.32917 -20.06851,36.66184 0.25059,0.79392 44.63341,80.10997 45.41362,81.15818 l 0.64729,0.86964 h 20.08306 c 18.73054,0 20.11563,0.0455 20.56671,0.67638 0.266,0.37202 1.3857,2.41566 2.48823,4.54144 1.10253,2.12578 2.23039,4.07734 2.50637,4.33682 0.39562,0.37197 -7.77026,0.45373 -38.60207,0.3865 -21.50711,-0.0469 -39.06948,-0.21458 -39.02749,-0.37263 0.12027,-0.45263 -4.53867,-8.95034 -20.34615,-37.11052 -10.97387,-19.54937 -14.84293,-26.16385 -15.26049,-26.08909 -0.34421,0.0616 -6.48403,10.73002 -15.96208,27.73527 -8.47149,15.19931 -16.37435,29.25391 -17.56191,31.23246 -1.18757,1.97854 -2.15921,3.80478 -2.15921,4.0583 0,0.35516 -15.3409,0.48333 -66.842133,0.55848 l -66.8421308,0.0975 z m 0.00487,-82.61634 c 0.011127,-38.90172 0.08044,-70.55648 0.1540283,-70.3439 0.08762,0.25311 6.5906415,0.35108 18.8420615,0.28387 l 18.708264,-0.10264 8.678929,24.83896 c 17.767207,50.84944 17.533897,50.20135 18.027785,50.07854 0.290379,-0.0722 5.471205,-14.35046 13.575756,-37.4145 l 13.106171,-37.29772 5.86789,-0.10483 5.86789,-0.10483 12.78994,22.40595 12.78994,22.40595 v 20.50229 20.50228 l -13.2185,24.64171 c -7.27017,13.55294 -13.42187,24.89638 -13.67045,25.20766 -0.39072,0.48928 -0.45194,-6.03928 -0.45194,-48.19369 0,-34.93573 -0.0988,-48.83385 -0.34843,-49.02143 -0.19163,-0.14399 -0.52829,-0.0238 -0.74812,0.26707 -0.21984,0.29088 -6.09236,16.79106 -13.050045,36.66708 -6.957689,19.87602 -12.796664,36.53213 -12.975502,37.01358 l -0.32516,0.87538 -9.234651,-0.10237 -9.234648,-0.10236 -12.94239,-36.91122 C 44.11998,173.33063 38.130296,156.3957 37.927886,155.99862 c -0.222313,-0.43611 -0.483085,-0.58205 -0.658651,-0.36861 -0.171792,0.20885 -0.323616,21.12867 -0.371295,51.16085 l -0.08066,50.80751 H 23.14683 c -8.745974,0 -13.7545858,0.13923 -13.9040173,0.3865 -0.1284634,0.21258 -0.2244661,-31.44217 -0.2133393,-70.3439 z M 249.7666,253.05694 c -0.35367,-0.4783 -5.41139,-9.39207 -11.23936,-19.80838 -5.82799,-10.41631 -11.40111,-20.2432 -12.38471,-21.83753 -0.98361,-1.59434 -4.55149,-7.8984 -7.92861,-14.00904 l -6.14024,-11.11025 0.56668,-1.06465 c 0.31168,-0.58557 3.66838,-6.19552 7.45934,-12.46656 3.79096,-6.27104 12.28887,-21.09834 18.88426,-32.94955 l 11.99159,-21.54765 h 15.27359 c 13.61974,0 15.25326,0.0644 15.08579,0.595 -0.10329,0.32724 -8.58147,15.58936 -18.8404,33.91581 -10.25894,18.32645 -18.71102,33.58968 -18.78241,33.91829 -0.0714,0.32861 0.35278,1.45914 0.94259,2.51228 13.24658,23.65249 35.84625,64.3078 35.84625,64.48504 0,0.13026 -6.77055,0.23682 -15.04566,0.23682 h -15.04566 z"
         id="path12"
         inkscape:connector-curvature="0" />
      <path
         style="fill:#000000;stroke-width:0.35053766"
         d="m 9.0246052,270.25731 c 0.013804,-2.92344 0.085327,-5.14142 0.1589402,-4.92884 0.1364854,0.39414 101.9909446,0.20167 102.2680346,-0.19325 0.52903,-0.75402 45.40289,-81.17687 45.54396,-81.62383 0.16805,-0.53239 -39.82545,-72.40104 -40.66139,-73.06886 -0.19549,-0.15618 -24.215657,-0.28663 -53.378143,-0.28988 -42.130752,-0.005 -53.0504278,-0.10517 -53.1576655,-0.48905 -0.074229,-0.26572 -0.1770359,-2.52701 -0.2284602,-5.02507 l -0.093499,-4.54194 69.2265117,5e-4 c 60.100286,4.4e-4 69.226506,0.074 69.226506,0.55812 0,0.5635 28.82506,52.3573 29.88404,53.69662 0.31455,0.3978 0.70352,0.62439 0.86438,0.50353 0.50576,-0.38002 29.98451,-53.38523 29.91604,-53.7915 -0.0358,-0.21258 0.35593,-0.49637 0.87059,-0.63065 0.51464,-0.13428 18.80498,-0.26473 40.64519,-0.28988 37.7967,-0.0435 39.68563,-0.0132 39.21456,0.63065 -0.2722,0.37201 -1.3516,2.58959 -2.39866,4.92794 l -1.90374,4.25156 -22.26284,0.19325 c -12.24457,0.10629 -22.32711,0.28021 -22.40566,0.3865 -0.0785,0.10629 -9.25265,16.44077 -20.3869,36.29883 -12.10686,21.59274 -20.17352,36.32917 -20.06851,36.66184 0.25059,0.79392 44.63341,80.10997 45.41362,81.15818 l 0.64729,0.86964 h 20.08306 c 18.73054,0 20.11563,0.0455 20.56671,0.67638 0.266,0.37202 1.3857,2.41566 2.48823,4.54144 1.10253,2.12578 2.23039,4.07734 2.50637,4.33682 0.39562,0.37197 -7.77026,0.45373 -38.60207,0.3865 -21.50711,-0.0469 -39.06948,-0.21458 -39.02749,-0.37263 0.12027,-0.45263 -4.53867,-8.95034 -20.34615,-37.11052 -10.97387,-19.54937 -14.84293,-26.16385 -15.26049,-26.08909 -0.34421,0.0616 -6.48403,10.73002 -15.96208,27.73527 -8.47149,15.19931 -16.37435,29.25391 -17.56191,31.23246 -1.18757,1.97854 -2.15921,3.80478 -2.15921,4.0583 0,0.35516 -15.3409,0.48333 -66.842133,0.55848 l -66.8421308,0.0975 z m 0.00487,-82.61634 c 0.011127,-38.90172 0.08044,-70.55648 0.1540283,-70.3439 0.08762,0.25311 6.5906415,0.35108 18.8420615,0.28387 l 18.708264,-0.10264 8.678929,24.83896 c 17.767207,50.84944 17.533897,50.20135 18.027785,50.07854 0.290379,-0.0722 5.471205,-14.35046 13.575756,-37.4145 l 13.106171,-37.29772 5.86789,-0.10483 5.86789,-0.10483 12.78994,22.40595 12.78994,22.40595 v 20.50229 20.50228 l -13.2185,24.64171 c -7.27017,13.55294 -13.42187,24.89638 -13.67045,25.20766 -0.39072,0.48928 -0.45194,-6.03928 -0.45194,-48.19369 0,-34.93573 -0.0988,-48.83385 -0.34843,-49.02143 -0.19163,-0.14399 -0.52829,-0.0238 -0.74812,0.26707 -0.21984,0.29088 -6.09236,16.79106 -13.050045,36.66708 -6.957689,19.87602 -12.796664,36.53213 -12.975502,37.01358 l -0.32516,0.87538 -9.234651,-0.10237 -9.234648,-0.10236 -12.94239,-36.91122 C 44.11998,173.33063 38.130296,156.3957 37.927886,155.99862 c -0.222313,-0.43611 -0.483085,-0.58205 -0.658651,-0.36861 -0.171792,0.20885 -0.323616,21.12867 -0.371295,51.16085 l -0.08066,50.80751 H 23.14683 c -8.745974,0 -13.7545858,0.13923 -13.9040173,0.3865 -0.1284634,0.21258 -0.2244661,-31.44217 -0.2133393,-70.3439 z"
         id="path10"
         inkscape:connector-curvature="0" />
    </g>
  </g>
</svg>
